<svg width="165" height="240" viewBox="0 0 165 240" fill="none" xmlns="http://www.w3.org/2000/svg">
<path d="M159.957 49.9141C163.147 58.3585 164.999 67.5238 164.999 77.1011C164.999 86.6783 163.25 95.8436 159.957 104.288L159.957 49.9141Z" fill="#EC1F26"/>
<path d="M146.578 27.4652C148.842 30.0397 150.901 32.8202 152.753 35.7037L152.753 118.294C150.901 121.178 148.842 123.958 146.578 126.533L146.578 27.4652Z" fill="#EC1F26"/>
<path d="M133.303 15.2103C135.464 16.755 137.522 18.4027 139.478 20.1534L139.478 133.845C137.522 135.595 135.464 137.243 133.303 138.788L133.303 15.2103Z" fill="#EC1F26"/>
<path d="M119.924 7.5895C121.982 8.51633 124.144 9.54614 126.099 10.6789L126.099 143.422C124.144 144.554 121.982 145.584 119.924 146.511L119.924 7.5895Z" fill="#EC1F26"/>
<path d="M106.545 3.05817C108.604 3.57307 110.662 4.08799 112.72 4.80886L112.72 149.291C110.662 150.012 108.604 150.527 106.545 151.042L106.545 3.05817Z" fill="#EC1F26"/>
<path d="M93.167 1.10144C95.2253 1.20443 97.2835 1.41039 99.3417 1.71934L99.3417 152.381C97.2835 152.69 95.2253 152.896 93.1671 152.999L93.167 1.10144Z" fill="#EC1F26"/>
<path d="M85.9637 0.998439L85.9637 152.999C83.9055 152.896 81.8473 152.793 79.7891 152.484L79.7891 1.51334C81.8473 1.30738 83.9055 1.10142 85.9637 0.998439Z" fill="#EC1F26"/>
<path d="M72.5852 2.74935L72.5852 151.248C70.527 150.836 68.4687 150.218 66.4105 149.6L66.4105 4.29407C68.4687 3.77916 70.527 3.16128 72.5852 2.74935Z" fill="#EC1F26"/>
<path d="M59.2068 6.97135L59.2068 147.026C57.1486 146.099 55.0904 145.172 53.0322 144.039L53.0322 9.95781C55.0904 8.928 57.1486 7.89818 59.2068 6.97135Z" fill="#EC1F26"/>
<path d="M45.9311 14.3863L45.9311 139.611C43.7699 138.17 41.7117 136.522 39.7564 134.874L39.7564 19.1235C41.7117 17.4758 43.7699 15.8281 45.9311 14.3863Z" fill="#EC1F26"/>
<path d="M32.5525 26.1263L32.5525 127.872C30.2884 125.4 28.2302 122.826 26.3778 120.045L26.3778 33.9529C28.2302 31.1724 30.2884 28.5978 32.5525 26.1263Z" fill="#EC1F26"/>
<path d="M19.1738 46.9284L19.1738 107.069C15.1602 97.801 12.9991 87.7089 12.9991 76.9988C12.9991 66.2888 15.1602 56.1967 19.1738 46.9284Z" fill="#EC1F26"/>
<ellipse cx="21.5" cy="217.933" rx="21.5" ry="21.9329" fill="#6F2F90"/>
</svg>
